<svg width="70" height="70" viewBox="0 0 70 70" fill="none" xmlns="http://www.w3.org/2000/svg">
<path d="M53.297 30.7822C53.297 31.7488 53.2942 32.7018 53.297 33.6533C53.3106 36.9564 53.528 40.2746 53.2983 43.5613C52.9005 49.2393 50.3931 53.874 45.5409 57.0131C40.913 60.0072 35.8448 60.6307 30.5935 59.0939C25.7659 57.6803 22.2249 54.6109 19.9362 50.1143C18.4063 47.1092 17.7433 43.9441 17.7774 40.5604C17.8417 34.0443 17.761 27.527 17.731 21.0109C17.7269 20.2193 17.6612 19.4291 17.6216 18.5965C19.1378 18.3545 20.5774 18.293 21.9938 18.7811C23.4622 19.2869 24.3714 20.3246 24.746 21.8094C27.5419 18.4475 30.8505 15.668 33.9841 12.7121C34.613 12.1188 35.2323 11.5104 35.8188 10.876C36.847 9.76582 38.7419 9.82871 39.6853 10.3551C40.8788 11.0223 41.6075 12.5836 41.3696 13.9727C41.1823 15.0678 40.6382 15.9674 39.9245 16.7891C39.6333 17.124 39.3694 17.4836 39.0058 17.9416C42.246 17.8131 45.3276 17.6887 48.4106 17.5684C49.0026 17.5451 49.596 17.5492 50.1866 17.5205C50.8757 17.4863 51.2161 17.8268 51.3597 18.4775C51.6864 19.9541 51.3952 21.2953 50.4655 22.4684C49.138 24.1432 47.3497 24.9074 45.2388 25.0264C43.97 25.0975 42.6343 25.0182 41.4544 25.3996C37.5962 26.6465 35.1763 29.2592 34.4517 33.3471C33.872 36.6174 34.7771 39.3941 37.1272 41.6855C38.3741 42.901 39.9409 43.3275 41.6636 43.065C43.3356 42.8094 44.4376 41.5078 44.4718 39.8057C44.48 39.3982 44.4718 38.9908 44.4718 38.4686H38.0638V30.7891H53.2956L53.297 30.7822ZM38.2306 12.3772C36.888 13.5365 35.57 14.6098 34.3272 15.7637C32.7413 17.2361 31.1991 18.7564 29.6747 20.2918C28.8106 21.1641 27.9931 22.0869 27.2028 23.0275C26.2048 24.2129 25.6388 25.5664 25.6894 27.1592C25.729 28.3883 25.6743 29.6201 25.6757 30.8506C25.6798 35.0438 25.6921 39.2355 25.6948 43.4287C25.6948 44.2846 25.2737 44.6729 24.422 44.6414C23.5073 44.6086 23.13 44.2326 23.119 43.2647C23.0794 39.5732 23.0698 35.8832 23.0192 32.1918C22.9823 29.5053 22.9495 26.816 22.8169 24.1336C22.7362 22.5107 21.5946 21.2147 20.2644 20.9822C20.3081 21.9365 20.3874 22.8895 20.3888 23.8424C20.397 29.9264 20.3614 36.0104 20.3915 42.0943C20.4229 48.5994 24.2921 54.1721 30.361 56.5141C31.4548 56.9365 32.5813 57.2797 33.7708 57.3043C34.4776 52.716 35.3704 48.3014 39.6538 45.608C39.5554 45.5082 39.5294 45.4563 39.4925 45.4467C39.3394 45.407 39.1849 45.3729 39.0276 45.3482C36.2249 44.8998 34.3997 43.1416 33.2157 40.734C31.2073 36.6502 31.236 32.5432 33.6218 28.5988C35.4142 25.6361 37.9544 23.5498 41.4106 22.8498C42.7573 22.5777 44.1724 22.6324 45.5573 22.5504C46.9054 22.4711 48.0265 21.9529 48.8263 20.8482C48.989 20.624 49.0218 20.3068 49.1147 20.0334C48.8427 19.9678 48.5679 19.8352 48.2985 19.8461C45.8403 19.9432 43.3835 20.1387 40.9253 20.1647C35.3909 20.2234 31.206 25.915 31.0378 29.7705C30.9339 32.159 30.9462 34.5529 30.9257 36.9441C30.9065 39.1535 30.9257 41.3643 30.8929 43.5736C30.8888 43.8443 30.7384 44.234 30.5306 44.357C29.6815 44.8629 28.4593 44.1588 28.4552 43.1772C28.4374 38.5752 28.4019 33.9719 28.4456 29.3699C28.4675 27.11 29.3452 25.1057 30.7343 23.3475C31.4958 22.385 32.3462 21.4881 33.1938 20.5981C34.7183 18.9984 36.281 17.4357 37.804 15.8361C38.1608 15.4615 38.4931 15.0363 38.7228 14.577C39.189 13.6445 38.9606 12.8516 38.2319 12.3731L38.2306 12.3772ZM36.0335 57.5518C36.8907 57.4547 37.6167 57.4014 38.3345 57.2865C45.761 56.0943 50.5585 50.5641 50.8196 42.8709C50.9153 40.0504 50.8552 37.2244 50.8661 34.4012C50.8661 34.0689 50.8661 33.7354 50.8661 33.3785H40.5698V36.0063H47.0831C47.0831 37.4049 47.1501 38.7502 47.0681 40.0846C46.9395 42.1654 46.0317 43.884 44.3638 45.1596C43.7868 45.5998 43.1634 45.9854 42.5372 46.3559C40.1296 47.7805 38.3522 49.7561 37.2257 52.3209C36.5052 53.9629 36.2181 55.6938 36.0349 57.5531L36.0335 57.5518Z" fill="white"/>
</svg>
