<svg width="34" height="24" viewBox="0 0 34 24" fill="none" xmlns="http://www.w3.org/2000/svg">
<rect x="1.5" y="1.5" width="30.8809" height="21.21" rx="4" stroke="white" stroke-width="2"/>
<path d="M14.624 14.5908H16.1514C16.1126 15.4209 15.9438 16.1375 15.645 16.7407C15.3517 17.3384 14.9229 17.7977 14.3584 18.1187C13.7995 18.4396 13.0994 18.6001 12.2583 18.6001C11.6551 18.6001 11.11 18.4811 10.623 18.2432C10.1361 18.0052 9.71826 17.6649 9.36963 17.2222C9.02653 16.7739 8.76367 16.2371 8.58105 15.6118C8.39844 14.9865 8.30713 14.2837 8.30713 13.5034V11.2705C8.30713 10.4958 8.39844 9.79574 8.58105 9.17041C8.76921 8.54508 9.0376 8.01107 9.38623 7.56836C9.7404 7.12012 10.1693 6.77702 10.6729 6.53906C11.182 6.30111 11.7575 6.18213 12.3994 6.18213C13.1852 6.18213 13.8493 6.33984 14.3916 6.65527C14.9395 6.96517 15.36 7.42171 15.6533 8.0249C15.9521 8.62256 16.1182 9.35579 16.1514 10.2246H14.624C14.5853 9.58822 14.4857 9.0708 14.3252 8.67236C14.1647 8.26839 13.9268 7.97233 13.6113 7.78418C13.3014 7.59049 12.8975 7.49365 12.3994 7.49365C11.9567 7.49365 11.5721 7.58219 11.2456 7.75928C10.9246 7.93636 10.659 8.19092 10.4487 8.52295C10.244 8.84945 10.089 9.24512 9.98389 9.70996C9.88428 10.1693 9.83447 10.6839 9.83447 11.2539V13.5034C9.83447 14.0347 9.87598 14.5299 9.95898 14.9893C10.0475 15.4486 10.1859 15.8525 10.374 16.2012C10.5677 16.5443 10.8195 16.8127 11.1294 17.0063C11.4393 17.2 11.8156 17.2969 12.2583 17.2969C12.8172 17.2969 13.2599 17.2056 13.5864 17.0229C13.9129 16.8403 14.1536 16.5498 14.3086 16.1514C14.4691 15.7529 14.5742 15.2327 14.624 14.5908ZM24.2695 14.5908H25.7969C25.7581 15.4209 25.5894 16.1375 25.2905 16.7407C24.9972 17.3384 24.5684 17.7977 24.0039 18.1187C23.445 18.4396 22.745 18.6001 21.9038 18.6001C21.3006 18.6001 20.7555 18.4811 20.2686 18.2432C19.7816 18.0052 19.3638 17.6649 19.0151 17.2222C18.672 16.7739 18.4092 16.2371 18.2266 15.6118C18.0439 14.9865 17.9526 14.2837 17.9526 13.5034V11.2705C17.9526 10.4958 18.0439 9.79574 18.2266 9.17041C18.4147 8.54508 18.6831 8.01107 19.0317 7.56836C19.3859 7.12012 19.8148 6.77702 20.3184 6.53906C20.8275 6.30111 21.403 6.18213 22.0449 6.18213C22.8307 6.18213 23.4948 6.33984 24.0371 6.65527C24.585 6.96517 25.0055 7.42171 25.2988 8.0249C25.5977 8.62256 25.7637 9.35579 25.7969 10.2246H24.2695C24.2308 9.58822 24.1312 9.0708 23.9707 8.67236C23.8102 8.26839 23.5723 7.97233 23.2568 7.78418C22.9469 7.59049 22.543 7.49365 22.0449 7.49365C21.6022 7.49365 21.2176 7.58219 20.8911 7.75928C20.5701 7.93636 20.3045 8.19092 20.0942 8.52295C19.8895 8.84945 19.7345 9.24512 19.6294 9.70996C19.5298 10.1693 19.48 10.6839 19.48 11.2539V13.5034C19.48 14.0347 19.5215 14.5299 19.6045 14.9893C19.693 15.4486 19.8314 15.8525 20.0195 16.2012C20.2132 16.5443 20.465 16.8127 20.7749 17.0063C21.0848 17.2 21.4611 17.2969 21.9038 17.2969C22.4627 17.2969 22.9054 17.2056 23.2319 17.0229C23.5584 16.8403 23.7992 16.5498 23.9541 16.1514C24.1146 15.7529 24.2197 15.2327 24.2695 14.5908Z" fill="white"/>
</svg>
