<svg width="48" height="19" viewBox="0 0 48 19" fill="none" xmlns="http://www.w3.org/2000/svg">
<path d="M5.23861 17.0079L1.50215 13.2715C1.15387 12.926 0.881581 12.5116 0.702722 12.0548C0.523863 11.598 0.442377 11.1089 0.463482 10.6188C0.484586 10.1287 0.607814 9.64845 0.825279 9.20873C1.04274 8.76901 1.34965 8.37956 1.72634 8.06532C5.97535 4.64918 10.9664 2.27736 16.2985 1.14041C21.2201 0.0433392 26.3228 0.0433392 31.2444 1.14041C36.5985 2.28473 41.6078 4.67417 45.8664 8.11514C46.2419 8.42843 46.5481 8.81649 46.7655 9.25461C46.9828 9.69272 47.1066 10.1713 47.1288 10.6598C47.1511 11.1484 47.0714 11.6363 46.8948 12.0923C46.7182 12.5484 46.4485 12.9627 46.103 13.3088L42.3666 17.0453C41.7681 17.6557 40.9681 18.0276 40.1156 18.0918C39.2632 18.1559 38.4165 17.9079 37.7334 17.394C36.3799 16.356 34.9134 15.4744 33.3617 14.766C32.7484 14.4878 32.2276 14.0396 31.8612 13.4745C31.4947 12.9094 31.298 12.2511 31.2942 11.5776L31.2942 8.41406C26.403 7.06894 21.2395 7.06894 16.3484 8.41406V11.5776C16.3446 12.2511 16.1478 12.9094 15.7814 13.4745C15.415 14.0396 14.8942 14.4878 14.2808 14.766C12.7292 15.4744 11.2626 16.356 9.90919 17.394C9.21882 17.9137 8.36153 18.1615 7.50038 18.0903C6.63922 18.0191 5.83427 17.6339 5.23861 17.0079Z" fill="white"/>
</svg>
