<svg width="4" height="25" viewBox="0 0 4 25" fill="none" xmlns="http://www.w3.org/2000/svg">
<path d="M1.96708 13.88C2.50119 13.88 2.93417 13.2621 2.93417 12.5C2.93417 11.7378 2.50119 11.12 1.96708 11.12C1.43298 11.12 1 11.7378 1 12.5C1 13.2621 1.43298 13.88 1.96708 13.88Z" fill="white" stroke="white" stroke-width="2" stroke-linecap="round" stroke-linejoin="round"/>
<path d="M1.96708 3.76C2.50119 3.76 2.93417 3.14215 2.93417 2.38C2.93417 1.61785 2.50119 1 1.96708 1C1.43298 1 1 1.61785 1 2.38C1 3.14215 1.43298 3.76 1.96708 3.76Z" fill="white" stroke="white" stroke-width="2" stroke-linecap="round" stroke-linejoin="round"/>
<path d="M1.96708 24C2.50119 24 2.93417 23.3821 2.93417 22.62C2.93417 21.8578 2.50119 21.24 1.96708 21.24C1.43298 21.24 1 21.8578 1 22.62C1 23.3821 1.43298 24 1.96708 24Z" fill="white" stroke="white" stroke-width="2" stroke-linecap="round" stroke-linejoin="round"/>
</svg>
