<svg width="20" height="30" viewBox="0 0 20 30" fill="none" xmlns="http://www.w3.org/2000/svg">
<path d="M9.72073 1.5C8.82303 1.5 7.96209 1.893 7.32732 2.59255C6.69255 3.29209 6.33594 4.24088 6.33594 5.23018V15.1773C6.33594 16.1666 6.69255 17.1154 7.32732 17.815C7.96209 18.5145 8.82303 18.9075 9.72073 18.9075C10.6184 18.9075 11.4794 18.5145 12.1141 17.815C12.7489 17.1154 13.1055 16.1666 13.1055 15.1773V5.23018C13.1055 4.24088 12.7489 3.29209 12.1141 2.59255C11.4794 1.893 10.6184 1.5 9.72073 1.5Z" fill="white" stroke="white" stroke-width="2" stroke-linecap="round" stroke-linejoin="round"/>
<path d="M18.9075 12.1377V14.7166C18.9075 17.1105 17.9905 19.4063 16.3583 21.099C14.726 22.7917 12.5121 23.7427 10.2038 23.7427C7.89538 23.7427 5.68154 22.7917 4.04927 21.099C2.417 19.4063 1.5 17.1105 1.5 14.7166V12.1377" stroke="white" stroke-width="2" stroke-linecap="round" stroke-linejoin="round"/>
<path d="M10.2041 23.7427V28.5781" stroke="white" stroke-width="2" stroke-linecap="round" stroke-linejoin="round"/>
<path d="M4.40137 28.5782H15.0393" stroke="white" stroke-width="2" stroke-linecap="round" stroke-linejoin="round"/>
</svg>
