<svg width="72" height="72" viewBox="0 0 72 72" fill="none" xmlns="http://www.w3.org/2000/svg">
<rect width="72" height="72" rx="16" fill="#5F5F5F"/>
<path d="M20.4606 22.051C18.1577 23.3482 16.75 25.6757 16.75 28.1861V43.9744C16.75 46.4849 18.1577 48.8124 20.4606 50.1096L31.7913 56.4916C34.2309 57.8659 37.2854 57.8659 39.7252 56.4918L51.0565 50.1096C53.3595 48.8124 54.7672 46.4849 54.7672 43.9743V28.1863C54.7672 25.6757 53.3595 23.3482 51.0565 22.051L39.7252 15.6688C37.2854 14.2946 34.2309 14.2947 31.7913 15.6689L20.4606 22.051Z" fill="#1B1C1D" stroke="#5F5F5F" stroke-width="3.5"/>
<path fill-rule="evenodd" clip-rule="evenodd" d="M32.9288 20.4068C34.1881 19.6848 35.8081 20.5305 35.8081 21.9098V27.0796C35.8081 27.6969 35.4623 28.2694 34.8964 28.5889L29.7387 31.501C29.098 31.8626 28.289 31.8373 27.6758 31.4361L23.5002 28.7052C22.3865 27.9767 22.4368 26.4218 23.5956 25.7575L32.9288 20.4068Z" fill="#5F5F5F"/>
</svg>
