<svg width="29" height="35" viewBox="0 0 29 35" fill="none" xmlns="http://www.w3.org/2000/svg">
<path d="M27.8293 11.8612C27.6741 11.9573 23.98 13.9854 23.98 18.4819C24.1541 23.61 28.6418 25.4084 28.7187 25.4084C28.6418 25.5045 28.0412 27.8582 26.2623 30.3255C24.8505 32.4509 23.2836 34.5937 20.9041 34.5937C18.6407 34.5937 17.8282 33.1773 15.2166 33.1773C12.4119 33.1773 11.6184 34.5937 9.47103 34.5937C7.09156 34.5937 5.40852 32.3361 3.91977 30.2307C1.98566 27.4751 0.341736 23.1507 0.2837 18.9986C0.244589 16.7984 0.671026 14.6356 1.75352 12.7985C3.28138 10.2338 6.00906 8.49286 8.98782 8.43545C11.2701 8.35932 13.3014 9.98548 14.6943 9.98548C16.0291 9.98548 18.5246 8.43545 21.3482 8.43545C22.5669 8.4367 25.817 8.79987 27.8293 11.8612ZM14.5012 7.99615C14.095 5.98685 15.2166 3.97756 16.2612 2.69585C17.596 1.14582 19.7043 0.09375 21.5223 0.09375C21.6384 2.10305 20.9028 4.07366 19.5882 5.50887C18.4086 7.0589 16.3773 8.22579 14.5012 7.99615Z" fill="white"/>
</svg>
