<svg width="512" height="512" viewBox="0 0 512 512" fill="none" xmlns="http://www.w3.org/2000/svg">
<g clip-path="url(#clip0_633_1275)">
<path d="M496.359 200.697C477.107 169.171 452.823 141.012 424.47 117.336L484.181 57.6247C492.363 49.1529 492.128 35.6529 483.657 27.4709C475.393 19.4889 462.29 19.4889 454.027 27.4709L389.091 92.4918C348.837 68.5826 302.817 56.1203 255.999 56.4521C123.973 56.4521 48.7369 146.83 15.6402 200.698C-5.21405 234.428 -5.21405 277.048 15.6402 310.78C34.8921 342.305 59.176 370.465 87.5285 394.141L27.8177 453.852C19.3458 462.034 19.1109 475.535 27.2929 484.005C35.4748 492.477 48.9758 492.712 57.4467 484.53C57.6246 484.358 57.7996 484.183 57.9715 484.005L123.056 418.921C163.26 442.827 209.225 455.309 255.999 455.024C388.025 455.024 463.261 364.647 496.358 310.779C517.213 277.048 517.213 234.428 496.359 200.697ZM128.047 255.738C127.927 185.189 185.018 127.901 255.567 127.78C282.26 127.734 308.298 136.052 330.021 151.564L299.056 182.528C286.057 174.689 271.179 170.511 256 170.437C208.889 170.437 170.699 208.628 170.699 255.738C170.773 270.918 174.951 285.795 182.79 298.794L151.826 329.759C136.363 308.174 128.048 282.289 128.047 255.738ZM256 383.691C229.449 383.69 203.564 375.375 181.979 359.913L212.944 328.948C225.943 336.787 240.821 340.966 256 341.04C303.111 341.04 341.301 302.849 341.301 255.738C341.227 240.559 337.049 225.681 329.21 212.682L360.174 181.718C401.172 239.13 387.866 318.909 330.453 359.907C308.73 375.419 282.693 383.737 256 383.691Z" fill="#ABABAB"/>
</g>
<defs>
<clipPath id="clip0_633_1275">
<rect width="512" height="512" fill="white"/>
</clipPath>
</defs>
</svg>
