<svg width="512" height="512" viewBox="0 0 512 512" fill="none" xmlns="http://www.w3.org/2000/svg">
<path d="M508.181 238.528C489.451 197.568 416 64 256 64C96 64 22.5493 197.568 3.81867 238.528C1.30428 244.017 0.00274658 249.984 0.00274658 256.021C0.00274658 262.059 1.30428 268.026 3.81867 273.515C22.5493 314.432 96 448 256 448C416 448 489.451 314.432 508.181 273.472C510.691 267.989 511.99 262.03 511.99 256C511.99 249.97 510.691 244.011 508.181 238.528ZM256 384C230.684 384 205.937 376.493 184.887 362.428C163.838 348.363 147.431 328.372 137.743 304.983C128.055 281.595 125.521 255.858 130.459 231.028C135.398 206.199 147.589 183.391 165.49 165.49C183.391 147.589 206.199 135.398 231.028 130.459C255.858 125.521 281.595 128.055 304.983 137.743C328.372 147.431 348.363 163.838 362.428 184.887C376.493 205.936 384 230.684 384 256C383.966 289.937 370.47 322.475 346.472 346.472C322.475 370.47 289.937 383.966 256 384Z" fill="#ABABAB"/>
<path d="M256 341.333C303.128 341.333 341.333 303.128 341.333 256C341.333 208.872 303.128 170.667 256 170.667C208.872 170.667 170.667 208.872 170.667 256C170.667 303.128 208.872 341.333 256 341.333Z" fill="#ABABAB"/>
</svg>
