<svg width="217" height="70" viewBox="0 0 217 70" fill="none" xmlns="http://www.w3.org/2000/svg">
<path d="M86.0682 30C85.7869 29.1392 85.4162 28.3679 84.956 27.6861C84.5043 26.9957 83.9631 26.4077 83.3324 25.9219C82.7102 25.4361 82.0028 25.0653 81.2102 24.8097C80.4176 24.554 79.5483 24.4261 78.6023 24.4261C77.0511 24.4261 75.6406 24.8267 74.3707 25.6278C73.1009 26.429 72.0909 27.6094 71.3409 29.169C70.5909 30.7287 70.2159 32.642 70.2159 34.9091C70.2159 37.1761 70.5952 39.0895 71.3537 40.6491C72.1122 42.2088 73.1392 43.3892 74.4347 44.1903C75.7301 44.9915 77.1875 45.392 78.8068 45.392C80.3068 45.392 81.6278 45.0724 82.7699 44.4332C83.9205 43.7855 84.8153 42.8736 85.4545 41.6974C86.1023 40.5128 86.4261 39.1193 86.4261 37.517L87.3977 37.7216H79.5227V34.9091H89.4943V37.7216C89.4943 39.8778 89.0341 41.7528 88.1136 43.3466C87.2017 44.9403 85.9403 46.1761 84.3295 47.054C82.7273 47.9233 80.8864 48.358 78.8068 48.358C76.4886 48.358 74.4517 47.8125 72.696 46.7216C70.9489 45.6307 69.5852 44.0795 68.6051 42.0682C67.6335 40.0568 67.1477 37.6705 67.1477 34.9091C67.1477 32.8381 67.4247 30.9759 67.9787 29.3224C68.5412 27.6605 69.3338 26.2457 70.3565 25.0781C71.3793 23.9105 72.5895 23.0156 73.9872 22.3935C75.3849 21.7713 76.9233 21.4602 78.6023 21.4602C79.983 21.4602 81.2699 21.669 82.4631 22.0866C83.6648 22.4957 84.7344 23.0795 85.6719 23.8381C86.6179 24.5881 87.4063 25.4872 88.0369 26.5355C88.6676 27.5753 89.1023 28.7301 89.3409 30H86.0682ZM102.748 48.4091C100.856 48.4091 99.2241 47.9915 97.8519 47.1562C96.4883 46.3125 95.4357 45.1364 94.6942 43.6278C93.9613 42.1108 93.5948 40.3466 93.5948 38.3352C93.5948 36.3239 93.9613 34.5511 94.6942 33.017C95.4357 31.4744 96.467 30.2727 97.788 29.4119C99.1175 28.5426 100.669 28.108 102.441 28.108C103.464 28.108 104.474 28.2784 105.471 28.6193C106.468 28.9602 107.376 29.5142 108.194 30.2812C109.012 31.0398 109.664 32.0455 110.15 33.2983C110.636 34.5511 110.879 36.0937 110.879 37.9261V39.2045H95.7425V36.5966H107.811C107.811 35.4886 107.589 34.5 107.146 33.6307C106.711 32.7614 106.089 32.0753 105.279 31.5724C104.478 31.0696 103.532 30.8182 102.441 30.8182C101.24 30.8182 100.2 31.1165 99.3221 31.7131C98.4528 32.3011 97.7837 33.0682 97.315 34.0142C96.8462 34.9602 96.6119 35.9744 96.6119 37.0568V38.7955C96.6119 40.2784 96.8675 41.5355 97.3789 42.5668C97.8988 43.5895 98.619 44.3693 99.5394 44.9062C100.46 45.4347 101.529 45.6989 102.748 45.6989C103.541 45.6989 104.257 45.5881 104.896 45.3665C105.544 45.1364 106.102 44.7955 106.571 44.3438C107.039 43.8835 107.402 43.3125 107.657 42.6307L110.572 43.4489C110.265 44.4375 109.75 45.3068 109.025 46.0568C108.301 46.7983 107.406 47.3778 106.341 47.7955C105.275 48.2045 104.078 48.4091 102.748 48.4091ZM129.377 32.7614L126.667 33.5284C126.497 33.0767 126.245 32.6378 125.913 32.2116C125.589 31.777 125.146 31.419 124.583 31.1378C124.021 30.8565 123.301 30.7159 122.423 30.7159C121.221 30.7159 120.22 30.9929 119.419 31.5469C118.626 32.0923 118.23 32.7869 118.23 33.6307C118.23 34.3807 118.502 34.973 119.048 35.4077C119.593 35.8423 120.446 36.2045 121.605 36.4943L124.52 37.2102C126.275 37.6364 127.583 38.2884 128.444 39.1662C129.305 40.0355 129.735 41.1562 129.735 42.5284C129.735 43.6534 129.412 44.6591 128.764 45.5455C128.125 46.4318 127.23 47.1307 126.079 47.642C124.929 48.1534 123.591 48.4091 122.065 48.4091C120.062 48.4091 118.404 47.9744 117.092 47.1051C115.779 46.2358 114.949 44.9659 114.599 43.2955L117.463 42.5795C117.735 43.6364 118.251 44.429 119.01 44.9574C119.777 45.4858 120.778 45.75 122.014 45.75C123.42 45.75 124.537 45.4517 125.363 44.8551C126.199 44.25 126.616 43.5256 126.616 42.6818C126.616 42 126.377 41.429 125.9 40.9688C125.423 40.5 124.69 40.1506 123.701 39.9205L120.429 39.1534C118.63 38.7273 117.309 38.0668 116.466 37.1719C115.63 36.2685 115.213 35.1392 115.213 33.7841C115.213 32.6761 115.524 31.696 116.146 30.8438C116.777 29.9915 117.633 29.3224 118.716 28.8366C119.806 28.3509 121.042 28.108 122.423 28.108C124.366 28.108 125.892 28.5341 127 29.3864C128.116 30.2386 128.909 31.3636 129.377 32.7614ZM142.817 28.3636V30.9205H132.641V28.3636H142.817ZM135.607 23.6591H138.624V42.375C138.624 43.2273 138.747 43.8665 138.994 44.2926C139.25 44.7102 139.574 44.9915 139.966 45.1364C140.366 45.2727 140.788 45.3409 141.232 45.3409C141.564 45.3409 141.837 45.3239 142.05 45.2898C142.263 45.2472 142.433 45.2131 142.561 45.1875L143.175 47.8977C142.97 47.9744 142.685 48.0511 142.318 48.1278C141.952 48.2131 141.487 48.2557 140.925 48.2557C140.072 48.2557 139.237 48.0724 138.419 47.706C137.609 47.3395 136.936 46.7812 136.399 46.0312C135.871 45.2812 135.607 44.3352 135.607 43.1932V23.6591ZM159.73 39.9716V28.3636H162.747V48H159.73V44.6761H159.526C159.065 45.6733 158.349 46.5213 157.378 47.2202C156.406 47.9105 155.179 48.2557 153.696 48.2557C152.469 48.2557 151.378 47.9872 150.423 47.4503C149.469 46.9048 148.719 46.0866 148.173 44.9957C147.628 43.8963 147.355 42.5114 147.355 40.8409V28.3636H150.372V40.6364C150.372 42.0682 150.773 43.2102 151.574 44.0625C152.384 44.9148 153.415 45.3409 154.668 45.3409C155.418 45.3409 156.18 45.1491 156.956 44.7656C157.74 44.3821 158.396 43.794 158.925 43.0014C159.462 42.2088 159.73 41.1989 159.73 39.9716ZM168.273 48V28.3636H171.188V31.3295H171.392C171.75 30.358 172.398 29.5696 173.336 28.9645C174.273 28.3594 175.33 28.0568 176.506 28.0568C176.728 28.0568 177.005 28.0611 177.337 28.0696C177.669 28.0781 177.921 28.0909 178.091 28.108V31.1761C177.989 31.1506 177.755 31.1122 177.388 31.0611C177.03 31.0014 176.651 30.9716 176.25 30.9716C175.296 30.9716 174.444 31.1719 173.694 31.5724C172.952 31.9645 172.364 32.5099 171.929 33.2088C171.503 33.8991 171.29 34.6875 171.29 35.5739V48H168.273ZM187.446 48.4602C186.202 48.4602 185.072 48.2259 184.058 47.7571C183.044 47.2798 182.239 46.5938 181.642 45.6989C181.045 44.7955 180.747 43.7045 180.747 42.4261C180.747 41.3011 180.969 40.3892 181.412 39.6903C181.855 38.983 182.447 38.429 183.189 38.0284C183.93 37.6278 184.749 37.3295 185.643 37.1335C186.547 36.929 187.455 36.767 188.366 36.6477C189.56 36.4943 190.527 36.3793 191.268 36.3026C192.018 36.2173 192.564 36.0767 192.905 35.8807C193.254 35.6847 193.429 35.3437 193.429 34.858V34.7557C193.429 33.4943 193.084 32.5142 192.393 31.8153C191.712 31.1165 190.676 30.767 189.287 30.767C187.847 30.767 186.717 31.0824 185.899 31.7131C185.081 32.3437 184.506 33.017 184.173 33.733L181.31 32.7102C181.821 31.517 182.503 30.5881 183.355 29.9233C184.216 29.25 185.153 28.7812 186.168 28.517C187.19 28.2443 188.196 28.108 189.185 28.108C189.815 28.108 190.54 28.1847 191.358 28.3381C192.185 28.483 192.982 28.7855 193.749 29.2457C194.524 29.706 195.168 30.4006 195.679 31.3295C196.19 32.2585 196.446 33.5028 196.446 35.0625V48H193.429V45.3409H193.276C193.071 45.767 192.73 46.223 192.253 46.7088C191.776 47.1946 191.141 47.608 190.348 47.9489C189.555 48.2898 188.588 48.4602 187.446 48.4602ZM187.906 45.75C189.099 45.75 190.105 45.5156 190.923 45.0469C191.75 44.5781 192.372 43.973 192.79 43.2315C193.216 42.4901 193.429 41.7102 193.429 40.892V38.1307C193.301 38.2841 193.02 38.4247 192.585 38.5526C192.159 38.6719 191.665 38.7784 191.102 38.8722C190.548 38.9574 190.007 39.0341 189.479 39.1023C188.959 39.1619 188.537 39.2131 188.213 39.2557C187.429 39.358 186.696 39.5241 186.014 39.7543C185.341 39.9759 184.795 40.3125 184.378 40.7642C183.969 41.2074 183.764 41.8125 183.764 42.5795C183.764 43.6278 184.152 44.4205 184.928 44.9574C185.712 45.4858 186.705 45.75 187.906 45.75Z" fill="white"/>
<path d="M206.811 13.3588H200.359V15.0559H202.714V22.3588H204.443V15.0559H206.811V13.3588Z" fill="white"/>
<path d="M216.359 13.3588H214.58L212.074 17.6145L209.556 13.3588H207.777V22.3588H209.506V16.5345L211.974 20.7002H212.174L214.642 16.5216V22.3588H216.359V13.3588Z" fill="white"/>
<path d="M53.297 30.7822C53.297 31.7488 53.2942 32.7018 53.297 33.6533C53.3106 36.9564 53.528 40.2746 53.2983 43.5613C52.9005 49.2393 50.3931 53.874 45.5409 57.0131C40.913 60.0072 35.8448 60.6307 30.5935 59.0939C25.7659 57.6803 22.2249 54.6109 19.9362 50.1143C18.4063 47.1092 17.7433 43.9441 17.7774 40.5604C17.8417 34.0443 17.761 27.527 17.731 21.0109C17.7269 20.2193 17.6612 19.4291 17.6216 18.5965C19.1378 18.3545 20.5774 18.293 21.9938 18.7811C23.4622 19.2869 24.3714 20.3246 24.746 21.8094C27.5419 18.4475 30.8505 15.668 33.9841 12.7121C34.613 12.1188 35.2323 11.5104 35.8188 10.876C36.847 9.76582 38.7419 9.82871 39.6853 10.3551C40.8788 11.0223 41.6075 12.5836 41.3696 13.9727C41.1823 15.0678 40.6382 15.9674 39.9245 16.7891C39.6333 17.124 39.3694 17.4836 39.0058 17.9416C42.246 17.8131 45.3276 17.6887 48.4106 17.5684C49.0026 17.5451 49.596 17.5492 50.1866 17.5205C50.8757 17.4863 51.2161 17.8268 51.3597 18.4775C51.6864 19.9541 51.3952 21.2953 50.4655 22.4684C49.138 24.1432 47.3497 24.9074 45.2388 25.0264C43.97 25.0975 42.6343 25.0182 41.4544 25.3996C37.5962 26.6465 35.1763 29.2592 34.4517 33.3471C33.872 36.6174 34.7771 39.3941 37.1272 41.6855C38.3741 42.901 39.9409 43.3275 41.6636 43.065C43.3356 42.8094 44.4376 41.5078 44.4718 39.8057C44.48 39.3982 44.4718 38.9908 44.4718 38.4686H38.0638V30.7891H53.2956L53.297 30.7822ZM38.2306 12.3772C36.888 13.5365 35.57 14.6098 34.3272 15.7637C32.7413 17.2361 31.1991 18.7564 29.6747 20.2918C28.8106 21.1641 27.9931 22.0869 27.2028 23.0275C26.2048 24.2129 25.6388 25.5664 25.6894 27.1592C25.729 28.3883 25.6743 29.6201 25.6757 30.8506C25.6798 35.0438 25.6921 39.2355 25.6948 43.4287C25.6948 44.2846 25.2737 44.6729 24.422 44.6414C23.5073 44.6086 23.13 44.2326 23.119 43.2647C23.0794 39.5732 23.0698 35.8832 23.0192 32.1918C22.9823 29.5053 22.9495 26.816 22.8169 24.1336C22.7362 22.5107 21.5946 21.2147 20.2644 20.9822C20.3081 21.9365 20.3874 22.8895 20.3888 23.8424C20.397 29.9264 20.3614 36.0104 20.3915 42.0943C20.4229 48.5994 24.2921 54.1721 30.361 56.5141C31.4548 56.9365 32.5813 57.2797 33.7708 57.3043C34.4776 52.716 35.3704 48.3014 39.6538 45.608C39.5554 45.5082 39.5294 45.4563 39.4925 45.4467C39.3394 45.407 39.1849 45.3729 39.0276 45.3482C36.2249 44.8998 34.3997 43.1416 33.2157 40.734C31.2073 36.6502 31.236 32.5432 33.6218 28.5988C35.4142 25.6361 37.9544 23.5498 41.4106 22.8498C42.7573 22.5777 44.1724 22.6324 45.5573 22.5504C46.9054 22.4711 48.0265 21.9529 48.8263 20.8482C48.989 20.624 49.0218 20.3068 49.1147 20.0334C48.8427 19.9678 48.5679 19.8352 48.2985 19.8461C45.8403 19.9432 43.3835 20.1387 40.9253 20.1647C35.3909 20.2234 31.206 25.915 31.0378 29.7705C30.9339 32.159 30.9462 34.5529 30.9257 36.9441C30.9065 39.1535 30.9257 41.3643 30.8929 43.5736C30.8888 43.8443 30.7384 44.234 30.5306 44.357C29.6815 44.8629 28.4593 44.1588 28.4552 43.1772C28.4374 38.5752 28.4019 33.9719 28.4456 29.3699C28.4675 27.11 29.3452 25.1057 30.7343 23.3475C31.4958 22.385 32.3462 21.4881 33.1938 20.5981C34.7183 18.9984 36.281 17.4357 37.804 15.8361C38.1608 15.4615 38.4931 15.0363 38.7228 14.577C39.189 13.6445 38.9606 12.8516 38.2319 12.3731L38.2306 12.3772ZM36.0335 57.5518C36.8907 57.4547 37.6167 57.4014 38.3345 57.2865C45.761 56.0943 50.5585 50.5641 50.8196 42.8709C50.9153 40.0504 50.8552 37.2244 50.8661 34.4012C50.8661 34.0689 50.8661 33.7354 50.8661 33.3785H40.5698V36.0063H47.0831C47.0831 37.4049 47.1501 38.7502 47.0681 40.0846C46.9395 42.1654 46.0317 43.884 44.3638 45.1596C43.7868 45.5998 43.1634 45.9854 42.5372 46.3559C40.1296 47.7805 38.3522 49.7561 37.2257 52.3209C36.5052 53.9629 36.2181 55.6938 36.0349 57.5531L36.0335 57.5518Z" fill="white"/>
</svg>
